<?xml version="1.0" encoding="utf-8"?>
<!DOCTYPE svg PUBLIC "-//W3C//DTD SVG 20010904//EN" "http://www.w3.org/TR/2001/REC-SVG-20010904/DTD/svg10.dtd">
<svg version="1.0" xmlns="http://www.w3.org/2000/svg" width="454pt" height="463pt" viewBox="0 0 454 463" preserveAspectRatio="xMidYMid meet">
<g fill="#DB0C15FF">
<path d="M 97.99 238.07 C 96.61 237.65 93.96 236.51 92.08 235.54 L 88.68 233.78 L 107.59 224.07 C 126.90 214.15 163.74 192.36 163.20 191.16 C 162.85 190.36 159.74 190.74 155.00 192.16 C 153.07 192.74 140.93 198.31 128.00 204.54 C 90.36 222.70 76.92 225.94 64.74 219.83 C 61.49 218.21 54.37 210.29 55.31 209.36 C 55.49 209.18 65.29 206.59 77.09 203.62 C 96.92 198.61 159.35 178.86 161.39 176.95 C 163.13 175.33 157.24 174.87 148.91 175.99 C 144.28 176.61 128.57 179.98 114.00 183.50 C 83.41 190.86 75.87 192.44 63.58 194.06 C 40.38 197.11 25.63 192.15 24.77 181.00 L 24.50 177.50 L 35.50 176.79 C 58.43 175.30 156.43 163.90 157.77 162.56 C 158.05 162.28 156.98 161.51 155.39 160.84 C 151.13 159.05 124.12 159.37 100.00 161.48 C 73.43 163.82 44.21 163.90 34.00 161.68 C 18.80 158.37 9.19 151.21 7.02 141.58 L 6.17 137.81 L 10.33 138.40 C 20.59 139.85 61.17 140.18 92.00 139.05 C 148.76 136.98 169.73 140.30 181.66 153.24 C 187.38 159.45 188.55 163.47 188.26 176.00 C 187.93 190.32 188.41 192.41 193.27 197.68 C 197.29 202.04 205.36 207.00 208.44 207.00 C 210.64 207.00 209.30 209.54 206.40 210.86 C 200.23 213.68 187.47 211.29 177.53 205.47 C 174.35 203.60 172.21 202.98 170.47 203.42 C 167.21 204.24 160.19 208.83 146.00 219.43 C 125.81 234.51 108.45 241.25 97.99 238.07Z"/></g>
<g fill="#DB0C15FF">
<path d="M 341.50 237.63 C 330.99 234.88 322.90 230.31 304.00 216.49 C 289.37 205.79 284.92 203.00 282.47 203.00 C 281.48 203.00 278.70 204.16 276.29 205.57 C 269.56 209.51 261.29 212.00 254.90 212.00 C 250.17 212.00 248.60 211.55 246.31 209.53 C 244.03 207.53 243.84 207.06 245.28 207.03 C 248.18 206.98 256.50 202.35 260.02 198.83 C 265.20 193.64 265.98 190.65 265.75 176.83 C 265.52 162.73 266.57 159.12 272.80 152.66 C 284.76 140.26 306.08 137.01 362.00 139.05 C 395.82 140.28 435.97 139.86 443.70 138.19 L 447.89 137.29 L 447.30 140.39 C 446.48 144.70 443.64 150.09 440.85 152.64 C 436.95 156.19 428.84 159.74 420.44 161.57 C 409.76 163.90 381.14 163.87 354.00 161.48 C 329.88 159.37 302.87 159.05 298.61 160.84 C 297.02 161.51 295.95 162.28 296.23 162.56 C 297.57 163.90 395.57 175.30 418.50 176.79 L 429.50 177.50 L 429.34 180.90 C 428.96 188.79 420.60 194.12 407.50 194.80 C 393.65 195.53 381.57 193.51 340.00 183.50 C 325.43 179.98 309.72 176.61 305.09 175.99 C 296.81 174.88 290.86 175.33 292.61 176.93 C 293.71 177.94 344.57 194.77 359.18 198.96 C 365.06 200.64 376.24 203.56 384.03 205.44 C 391.82 207.32 398.37 209.04 398.60 209.27 C 399.61 210.27 392.67 218.13 389.26 219.83 C 377.05 225.96 363.53 222.68 325.99 204.48 C 304.42 194.02 292.78 189.48 290.68 190.72 C 289.63 191.34 287.87 190.16 309.00 203.08 C 319.18 209.30 336.01 218.75 346.42 224.09 L 365.33 233.79 L 361.04 235.98 C 355.70 238.70 348.05 239.35 341.50 237.63Z"/></g>
<g fill="#DB0C15FF">
<path d="M 252.00 326.97 C 250.07 325.95 245.84 324.11 242.58 322.87 C 237.05 320.78 236.82 320.57 239.08 319.65 C 254.43 313.42 256.95 310.76 250.99 307.14 C 249.33 306.13 237.07 302.49 223.74 299.06 C 210.41 295.62 196.80 291.68 193.50 290.29 C 180.05 284.64 166.70 273.69 162.66 265.00 C 159.64 258.48 159.72 248.09 162.85 241.73 C 167.74 231.79 179.78 223.03 188.57 223.01 C 195.89 222.99 202.79 225.74 207.67 230.62 C 212.39 235.34 216.54 243.15 215.61 245.57 C 214.85 247.54 210.08 247.37 200.19 244.99 C 186.45 241.70 181.40 242.39 178.51 247.98 C 176.51 251.86 176.61 254.31 178.96 258.92 C 184.18 269.15 196.31 275.54 227.71 284.62 C 252.53 291.79 260.66 295.01 266.16 299.83 C 273.75 306.50 273.74 313.40 266.15 320.86 C 263.55 323.41 260.10 326.25 258.47 327.16 C 255.68 328.71 255.29 328.70 252.00 326.97Z"/></g>
<g fill="#DB0C15FF">
<path d="M 218.55 133.94 C 210.30 132.56 199.91 126.75 193.70 120.04 C 177.09 102.10 176.82 76.18 193.07 57.95 L 197.03 53.50 L 193.82 60.00 C 189.77 68.19 188.73 80.66 191.42 88.77 C 198.06 108.76 220.60 119.49 240.28 112.02 C 247.85 109.16 256.65 101.04 260.55 93.33 C 263.23 88.03 263.50 86.59 263.50 77.46 C 263.50 68.26 263.24 66.91 260.41 61.19 C 257.44 55.19 257.41 55.04 259.76 57.22 C 269.35 66.13 274.61 82.88 272.09 96.46 C 268.64 115.13 254.61 129.64 236.27 133.53 C 228.83 135.11 225.94 135.17 218.55 133.94Z"/></g>
<g fill="#DB0C15FF">
<path d="M 226.41 278.39 L 222.32 276.94 L 221.66 250.72 C 221.30 236.30 221.00 217.27 221.00 208.44 L 221.00 192.39 L 216.69 189.34 C 206.83 182.40 205.89 169.12 214.66 160.81 C 218.29 157.38 222.00 156.00 227.60 156.00 C 242.93 156.00 251.27 174.20 241.35 185.99 C 239.93 187.69 237.47 189.74 235.88 190.56 L 233.00 192.05 L 233.00 205.86 C 233.00 229.77 231.70 280.00 231.09 279.92 C 230.76 279.88 228.66 279.19 226.41 278.39Z"/></g>
<g fill="#DB0C15FF">
<path d="M 250.50 285.87 C 244.45 283.77 239.28 282.01 239.00 281.97 C 238.72 281.93 242.67 280.39 247.77 278.54 C 267.55 271.35 278.00 262.37 278.00 252.54 C 278.00 249.79 277.25 248.10 275.08 245.92 C 271.62 242.47 266.64 242.07 257.30 244.52 C 254.11 245.35 249.15 246.31 246.27 246.65 C 241.98 247.16 240.93 246.98 240.41 245.63 C 238.63 241.00 245.25 231.01 253.03 226.60 C 257.71 223.95 259.51 223.50 265.50 223.50 C 274.12 223.50 278.56 225.49 285.54 232.46 C 291.73 238.66 294.24 243.75 294.81 251.28 C 295.67 262.71 290.67 271.83 278.69 280.65 C 272.47 285.24 263.74 290.13 262.28 289.85 C 261.85 289.77 256.55 287.98 250.50 285.87Z"/></g>
<g fill="#DB0C15FF">
<path d="M 253.00 363.07 C 253.00 361.67 244.97 357.14 241.13 356.38 L 237.89 355.73 L 241.70 354.02 C 252.70 349.09 249.51 346.02 225.00 337.97 C 214.82 334.63 203.31 330.37 199.42 328.49 C 191.11 324.50 184.45 317.89 183.47 312.69 C 182.58 307.97 185.28 302.51 190.05 299.35 L 193.79 296.87 L 202.15 299.34 C 206.74 300.70 211.85 302.13 213.50 302.52 C 216.32 303.19 216.13 303.33 210.28 304.96 C 203.25 306.93 201.00 308.42 201.00 311.10 C 201.00 313.73 206.65 316.35 225.64 322.53 C 245.17 328.89 253.88 333.01 258.46 338.09 C 264.33 344.58 265.29 352.82 260.84 358.47 C 258.60 361.33 253.00 364.61 253.00 363.07Z"/></g>
<g fill="#DB0C15FF">
<path d="M 239.18 381.73 C 234.11 378.93 233.94 378.72 235.56 376.94 C 237.60 374.68 236.86 372.27 233.78 371.12 C 232.52 370.66 226.78 369.49 221.02 368.54 C 208.41 366.45 201.00 363.82 196.44 359.82 C 189.47 353.69 190.06 344.03 197.86 336.61 L 200.90 333.73 L 209.94 337.11 C 214.91 338.98 218.99 340.76 218.99 341.08 C 219.00 341.40 216.72 342.73 213.92 344.04 C 202.06 349.59 205.93 352.93 230.19 358.04 C 244.66 361.09 249.92 364.08 251.34 370.06 C 252.23 373.83 250.39 379.26 247.26 382.13 L 244.50 384.65 L 239.18 381.73Z"/></g>
<g fill="#DB0C15FF">
<path d="M 232.72 416.87 C 230.52 415.63 230.55 414.55 232.92 411.21 C 236.03 406.83 236.41 402.78 234.00 399.72 C 232.85 398.27 227.10 394.17 221.21 390.62 C 207.35 382.27 204.00 378.64 204.00 371.98 C 204.00 369.86 204.41 369.00 205.25 369.34 C 205.94 369.62 209.14 370.44 212.36 371.15 C 216.74 372.12 218.42 372.99 219.03 374.59 C 220.12 377.43 224.26 380.61 228.81 382.08 C 235.38 384.20 241.68 387.83 244.37 391.03 C 248.90 396.41 247.43 404.58 240.44 412.89 C 236.98 417.00 234.89 418.08 232.72 416.87Z"/></g>
<g fill="#DB0C15FF">
<path d="M 226.65 46.00 C 226.30 45.17 225.18 42.03 224.17 39.02 L 222.32 33.54 L 214.66 33.86 C 210.45 34.03 207.00 33.99 207.00 33.76 C 207.00 33.53 209.70 31.39 213.00 29.00 C 216.30 26.61 219.00 24.35 219.00 23.98 C 219.00 23.61 218.10 20.69 217.00 17.49 C 215.90 14.29 215.20 11.47 215.45 11.22 C 215.70 10.97 218.12 12.39 220.84 14.38 C 223.55 16.37 226.30 18.00 226.94 18.00 C 227.59 18.00 230.44 16.23 233.29 14.06 C 236.13 11.89 238.56 10.22 238.69 10.35 C 238.81 10.48 238.04 13.42 236.96 16.88 C 235.88 20.34 235.00 23.51 235.00 23.92 C 235.00 24.33 237.56 26.43 240.70 28.58 L 246.40 32.50 L 239.01 33.00 L 231.63 33.50 L 229.46 40.50 C 228.12 44.80 227.04 46.92 226.65 46.00Z"/></g>
<g fill="#DB0C15FF">
<path d="M 236.87 429.68 C 221.10 420.69 211.28 410.93 208.94 401.92 C 207.68 397.09 208.77 392.41 211.39 391.40 C 212.17 391.10 215.03 392.33 217.73 394.12 C 222.63 397.35 222.65 397.40 221.22 400.26 C 218.65 405.42 221.67 410.87 233.99 423.25 C 239.88 429.16 244.64 434.00 244.57 434.00 C 244.50 434.00 241.04 432.06 236.87 429.68Z"/></g>
<g fill="#DB0C15FF">
<path d="M 225.25 318.29 C 223.17 317.89 223.00 317.33 223.00 310.86 C 223.00 304.08 223.07 303.89 225.25 304.51 C 226.49 304.87 228.29 305.38 229.25 305.65 C 230.68 306.05 231.00 307.29 231.00 312.57 C 231.00 319.45 231.04 319.41 225.25 318.29Z"/></g>
<g fill="#DB0C15FF">
<path d="M 225.64 449.75 C 225.32 446.86 224.75 440.24 224.38 435.03 L 223.71 425.56 L 226.10 427.14 C 227.81 428.27 228.60 429.85 228.84 432.61 C 229.32 438.19 227.96 455.00 227.02 455.00 C 226.59 455.00 225.97 452.64 225.64 449.75Z"/></g>
<g fill="#DB0C15FF">
<path d="M 226.25 353.29 C 224.38 352.93 224.00 352.21 224.00 349.01 C 224.00 346.90 223.74 344.49 223.43 343.67 C 222.94 342.40 223.45 342.33 226.93 343.21 C 230.66 344.16 231.00 344.52 231.00 347.54 C 231.00 351.16 230.14 354.08 229.14 353.86 C 228.79 353.79 227.49 353.53 226.25 353.29Z"/></g>
</svg>
